<svg width="20" height="20" viewBox="0 0 20 20" fill="none" xmlns="http://www.w3.org/2000/svg">
<path d="M3.75 1.25C2.37109 1.25 1.25 2.37109 1.25 3.75V16.25C1.25 17.6289 2.37109 18.75 3.75 18.75H16.25C17.6289 18.75 18.75 17.6289 18.75 16.25V3.75C18.75 2.37109 17.6289 1.25 16.25 1.25H3.75ZM15.3555 4.53125L11.3008 9.16406L16.0703 15.4688H12.3359L9.41406 11.6445L6.06641 15.4688H4.21094L8.54688 10.5117L3.97266 4.53125H7.80078L10.4453 8.02734L13.5 4.53125H15.3555ZM13.8789 14.3594L7.24219 5.58203H6.13672L12.8477 14.3594H13.875H13.8789Z" fill="white"/>
</svg>
