<svg width="440" height="48" viewBox="0 0 440 48" fill="none" xmlns="http://www.w3.org/2000/svg">
<path fill-rule="evenodd" clip-rule="evenodd" d="M21.5005 32.4657H16.8272L13.3227 19.1224C13.1564 18.5086 12.8032 17.966 12.2837 17.7103C10.9872 17.0676 9.55854 16.5561 8 16.2981V15.7844H15.5284C16.5674 15.7844 17.3467 16.5561 17.4765 17.4523L19.2948 27.0773L23.9659 15.7844H28.5093L21.5005 32.4657ZM31.1069 32.4657H26.6934L30.3277 15.7844H34.7412L31.1069 32.4657ZM40.4511 20.406C40.581 19.5075 41.3602 18.9938 42.2694 18.9938C43.698 18.8648 45.2543 19.1228 46.5531 19.7633L47.3323 16.1717C46.0336 15.658 44.6049 15.4 43.3084 15.4C39.0247 15.4 35.9076 17.7106 35.9076 20.9175C35.9076 23.3571 38.1155 24.638 39.6741 25.4097C41.3602 26.1792 42.0096 26.6929 41.8797 27.4623C41.8797 28.6165 40.581 29.1303 39.2845 29.1303C37.7259 29.1303 36.1674 28.7455 34.741 28.1028L33.9617 31.6966C35.5203 32.3371 37.2064 32.5951 38.7649 32.5951C43.5682 32.7218 46.5531 30.4134 46.5531 26.9486C46.5531 22.5854 40.4511 22.3296 40.4511 20.406V20.406ZM62.0003 32.4657L58.4959 15.7844H54.7317C53.9524 15.7844 53.1732 16.2981 52.9134 17.0676L46.4241 32.4657H50.9675L51.8744 30.0283H57.4569L57.9764 32.4657H62.0003ZM55.381 20.2769L56.6775 26.5638H53.0432L55.381 20.2769Z" fill="white"/>
<path fill-rule="evenodd" clip-rule="evenodd" d="M128 34.7317C125.564 36.8321 122.404 38.1 118.951 38.1C111.246 38.1 105 31.7872 105 24C105 16.2128 111.246 9.89999 118.951 9.89999C122.404 9.89999 125.564 11.1679 128 13.2683C130.436 11.1679 133.596 9.89999 137.049 9.89999C144.754 9.89999 151 16.2128 151 24C151 31.7872 144.754 38.1 137.049 38.1C133.596 38.1 130.436 36.8321 128 34.7317Z" fill="#ED0006"/>
<path fill-rule="evenodd" clip-rule="evenodd" d="M128 34.7317C131 32.1455 132.902 28.2973 132.902 24C132.902 19.7027 131 15.8545 128 13.2683C130.436 11.1679 133.596 9.89999 137.049 9.89999C144.754 9.89999 151 16.2128 151 24C151 31.7872 144.754 38.1 137.049 38.1C133.596 38.1 130.436 36.8321 128 34.7317Z" fill="#F9A000"/>
<path fill-rule="evenodd" clip-rule="evenodd" d="M128 34.7314C131 32.1452 132.902 28.297 132.902 23.9999C132.902 19.7027 131 15.8545 128 13.2683C125.001 15.8545 123.099 19.7027 123.099 23.9999C123.099 28.297 125.001 32.1452 128 34.7314Z" fill="#FF5E00"/>
<path fill-rule="evenodd" clip-rule="evenodd" d="M197.546 16.7L191 31.2813H198.836L199.808 28.9564H202.028L203 31.2813H211.625V29.5069L212.394 31.2813H216.855L217.624 29.4694V31.2813H235.563L237.744 29.0168L239.786 31.2813L249 31.3L242.434 24.0313L249 16.7H239.929L237.806 18.9226L235.828 16.7H216.313L214.637 20.4636L212.922 16.7H205.102V18.414L204.232 16.7H197.546ZM224.333 18.7706H234.634L237.785 22.1964L241.037 18.7706H244.188L239.401 24.0293L244.188 29.2274H240.894L237.744 25.7619L234.475 29.2274H224.333V18.7706ZM226.877 22.8469V20.9369V20.9351H233.305L236.109 23.9897L233.181 27.061H226.877V24.9758H232.497V22.8469H226.877ZM199.062 18.7706H202.882L207.224 28.6582V18.7706H211.408L214.761 25.86L217.852 18.7706H222.016V29.2336H219.482L219.462 21.0348L215.768 29.2336H213.502L209.788 21.0348V29.2336H204.576L203.588 26.8879H198.25L197.264 29.2315H194.472L199.062 18.7706ZM199.162 24.7195L200.92 20.5409L202.677 24.7195H199.162Z" fill="white"/>
<path fill-rule="evenodd" clip-rule="evenodd" d="M337.801 19.1261C340.011 19.1261 341.226 20.1126 341.226 21.9758C341.337 23.4006 340.343 24.6063 339.017 24.8255L342 28.8808H339.68L337.138 24.9351H336.917V28.8808H335.039V19.1261H337.801ZM336.917 23.6198H337.47C338.685 23.6198 339.238 23.0718 339.238 22.0854C339.238 21.2086 338.685 20.6606 337.47 20.6606H336.917V23.6198ZM328.519 28.8808H333.823V27.2367H330.398V24.6063H333.713V22.9622H330.398V20.7702H333.823V19.1261H328.519V28.8808V28.8808ZM322.994 25.7023L320.453 19.1261H318.464L322.552 29.1H323.547L327.635 19.1261H325.646L322.994 25.7023V25.7023ZM300.564 24.0583C300.564 26.7983 302.773 29.1 305.536 29.1C306.42 29.1 307.193 28.8808 307.967 28.552V26.3599C307.414 27.0175 306.641 27.456 305.757 27.456C303.989 27.456 302.552 26.1407 302.552 24.3871V24.1679C302.442 22.4142 303.878 20.8798 305.646 20.7702C306.53 20.7702 307.414 21.2086 307.967 21.8662V19.6741C307.304 19.2357 306.42 19.1261 305.646 19.1261C302.773 18.9069 300.564 21.2086 300.564 24.0583V24.0583ZM297.138 22.8526C296.033 22.4142 295.702 22.195 295.702 21.647C295.812 20.9894 296.365 20.4414 297.028 20.551C297.58 20.551 298.133 20.8798 298.575 21.3182L299.569 20.0029C298.796 19.3453 297.801 18.9069 296.807 18.9069C295.26 18.7973 293.934 20.0029 293.823 21.5374V21.647C293.823 22.9622 294.376 23.7294 296.144 24.2775C296.586 24.3871 297.028 24.6063 297.47 24.8255C297.801 25.0447 298.022 25.3735 298.022 25.8119C298.022 26.5791 297.359 27.2367 296.696 27.2367H296.586C295.702 27.2367 294.928 26.6887 294.597 25.9215L293.381 27.1271C294.044 28.3328 295.37 28.9904 296.696 28.9904C298.464 29.1 299.901 27.7848 300.011 26.0311V25.7023C299.901 24.3871 299.348 23.7294 297.138 22.8526V22.8526ZM290.729 28.8808H292.608V19.1261H290.729V28.8808V28.8808ZM282 19.1261H284.762H285.315C287.967 19.2357 290.066 21.4278 289.956 24.0583C289.956 25.4831 289.293 26.7983 288.188 27.7848C287.193 28.552 285.978 28.9904 284.762 28.8808H282V19.1261ZM284.431 27.2368C285.315 27.3464 286.309 27.0176 286.972 26.4695C287.635 25.8119 287.967 24.9351 287.967 23.9487C287.967 23.0719 287.635 22.195 286.972 21.5374C286.309 20.9894 285.315 20.6606 284.431 20.7702H283.878V27.2368H284.431Z" fill="white"/>
<path fill-rule="evenodd" clip-rule="evenodd" d="M313.704 18.9C310.942 18.9 308.621 21.0921 308.621 23.9417C308.621 26.6818 310.831 28.9835 313.704 29.0931C316.577 29.2027 318.787 26.901 318.897 24.0513C318.787 21.2017 316.577 18.9 313.704 18.9Z" fill="url(#paint0_linear_602_255)"/>
<path fill-rule="evenodd" clip-rule="evenodd" d="M313.704 18.9C310.942 18.9 308.621 21.0921 308.621 23.9417C308.621 26.6818 310.831 28.9835 313.704 29.0931C316.577 29.2027 318.787 26.901 318.897 24.0513C318.787 21.2017 316.577 18.9 313.704 18.9Z" fill="url(#paint1_radial_602_255)"/>
<path d="M413.789 17.0005H409.432C409.135 17.0005 408.881 17.2182 408.835 17.514L407.073 28.7413C407.038 28.9628 407.209 29.1626 407.431 29.1626H409.667C409.874 29.1626 410.052 29.0102 410.084 28.8028L410.584 25.6203C410.63 25.3239 410.884 25.1062 411.182 25.1062H412.56C415.43 25.1062 417.085 23.7106 417.518 20.9449C417.714 19.7349 417.526 18.7842 416.962 18.1184C416.344 17.3872 415.246 17.0005 413.789 17.0005ZM414.291 21.1011C414.053 22.6722 412.859 22.6722 411.704 22.6722H411.047L411.509 19.7381C411.536 19.5607 411.688 19.4301 411.867 19.4301H412.168C412.954 19.4301 413.697 19.4301 414.08 19.8808C414.309 20.1497 414.378 20.5492 414.291 21.1011Z" fill="white"/>
<path d="M426.808 21.0506H424.723C424.544 21.0506 424.392 21.1812 424.365 21.3585L424.273 21.945L424.127 21.7324C423.675 21.0737 422.669 20.8534 421.664 20.8534C419.359 20.8534 417.391 22.6082 417.007 25.0698C416.809 26.2978 417.091 27.4719 417.784 28.2907C418.421 29.0436 419.329 29.3573 420.411 29.3573C422.268 29.3573 423.298 28.1569 423.298 28.1569L423.205 28.7395C423.17 28.9623 423.341 29.162 423.564 29.162H425.442C425.74 29.162 425.993 28.9444 426.04 28.648L427.168 21.4719C427.202 21.251 427.031 21.0506 426.808 21.0506ZM423.901 25.1313C423.701 26.3291 422.753 27.1332 421.547 27.1332C420.943 27.1332 420.457 26.938 420.147 26.5679C419.838 26.2004 419.722 25.6774 419.819 25.0948C420.008 23.9072 420.969 23.0769 422.157 23.0769C422.749 23.0769 423.231 23.2747 423.548 23.6479C423.867 24.025 423.993 24.5513 423.901 25.1313Z" fill="white"/>
<path d="M429.267 17.3086L427.479 28.7414C427.444 28.9629 427.615 29.1627 427.837 29.1627H429.634C429.933 29.1627 430.187 28.945 430.232 28.6486L431.995 17.4219C432.03 17.2004 431.86 17 431.637 17H429.625C429.447 17.0006 429.294 17.1312 429.267 17.3086Z" fill="white"/>
<path d="M382.72 17.0005H378.364C378.066 17.0005 377.813 17.2182 377.766 17.514L376.005 28.7413C375.97 28.9628 376.14 29.1626 376.364 29.1626H378.443C378.741 29.1626 378.995 28.9449 379.041 28.6485L379.516 25.6203C379.562 25.3239 379.816 25.1062 380.114 25.1062H381.493C384.362 25.1062 386.018 23.7106 386.45 20.9449C386.645 19.7349 386.459 18.7842 385.895 18.1184C385.276 17.3872 384.178 17.0005 382.72 17.0005ZM383.222 21.1011C382.984 22.6722 381.79 22.6722 380.635 22.6722H379.978L380.439 19.7381C380.467 19.5607 380.62 19.4301 380.798 19.4301H381.099C381.886 19.4301 382.628 19.4301 383.011 19.8808C383.24 20.1497 383.31 20.5492 383.222 21.1011Z" fill="white"/>
<path d="M395.74 21.0506H393.655C393.477 21.0506 393.323 21.1812 393.296 21.3585L393.204 21.945L393.058 21.7324C392.606 21.0737 391.599 20.8534 390.594 20.8534C388.289 20.8534 386.321 22.6082 385.937 25.0698C385.738 26.2978 386.021 27.4719 386.714 28.2907C387.35 29.0436 388.259 29.3573 389.341 29.3573C391.199 29.3573 392.229 28.1569 392.229 28.1569L392.136 28.7395C392.101 28.9623 392.271 29.162 392.493 29.162H394.372C394.671 29.162 394.923 28.9444 394.97 28.648L396.098 21.4719C396.133 21.251 395.963 21.0506 395.74 21.0506ZM392.833 25.1313C392.632 26.3291 391.686 27.1332 390.48 27.1332C389.874 27.1332 389.39 26.938 389.079 26.5679C388.771 26.2004 388.654 25.6774 388.752 25.0948C388.94 23.9072 389.901 23.0769 391.089 23.0769C391.681 23.0769 392.163 23.2747 392.48 23.6479C392.798 24.025 392.924 24.5513 392.833 25.1313Z" fill="white"/>
<path d="M406.849 21.0505H404.753C404.553 21.0505 404.365 21.1504 404.251 21.3175L401.361 25.5979L400.135 21.4846C400.058 21.2272 399.822 21.0505 399.554 21.0505H397.495C397.244 21.0505 397.071 21.2964 397.15 21.5333L399.459 28.3438L397.288 31.4238C397.118 31.6665 397.29 32 397.584 32H399.678C399.877 32 400.063 31.9027 400.175 31.7388L407.147 21.6235C407.314 21.3815 407.142 21.0505 406.849 21.0505Z" fill="white"/>
<defs>
<linearGradient id="paint0_linear_602_255" x1="310.607" y1="19.8635" x2="317.279" y2="27.6335" gradientUnits="userSpaceOnUse">
<stop stop-color="#E15315"/>
<stop offset="1" stop-color="#FFB320"/>
</linearGradient>
<radialGradient id="paint1_radial_602_255" cx="0" cy="0" r="1" gradientUnits="userSpaceOnUse" gradientTransform="translate(314.5 25.5) rotate(-126.027) scale(6.80074 7.04119)">
<stop stop-color="#FFCD83" stop-opacity="0"/>
<stop offset="0.725604" stop-color="#E45816" stop-opacity="0.7"/>
<stop offset="1" stop-color="#912301"/>
</radialGradient>
</defs>
</svg>
