<svg width="482" height="48" viewBox="0 0 482 48" fill="none" xmlns="http://www.w3.org/2000/svg">
<path fill-rule="evenodd" clip-rule="evenodd" d="M21.5005 32.4657H16.8272L13.3227 19.1224C13.1564 18.5086 12.8032 17.966 12.2837 17.7103C10.9872 17.0676 9.55854 16.5561 8 16.2981V15.7844H15.5284C16.5674 15.7844 17.3467 16.5561 17.4765 17.4523L19.2948 27.0773L23.9659 15.7844H28.5093L21.5005 32.4657ZM31.1069 32.4657H26.6934L30.3277 15.7844H34.7412L31.1069 32.4657ZM40.4511 20.406C40.581 19.5075 41.3602 18.9938 42.2694 18.9938C43.698 18.8648 45.2543 19.1228 46.5531 19.7633L47.3323 16.1717C46.0336 15.658 44.6049 15.4 43.3084 15.4C39.0247 15.4 35.9076 17.7106 35.9076 20.9175C35.9076 23.3571 38.1155 24.638 39.6741 25.4097C41.3602 26.1792 42.0096 26.6929 41.8797 27.4623C41.8797 28.6165 40.581 29.1303 39.2845 29.1303C37.7259 29.1303 36.1674 28.7455 34.741 28.1028L33.9617 31.6966C35.5203 32.3371 37.2064 32.5951 38.7649 32.5951C43.5681 32.7218 46.5531 30.4134 46.5531 26.9486C46.5531 22.5854 40.4511 22.3296 40.4511 20.406ZM62.0003 32.4657L58.4959 15.7844H54.7317C53.9524 15.7844 53.1732 16.2981 52.9134 17.0676L46.4241 32.4657H50.9675L51.8744 30.0283H57.4569L57.9764 32.4657H62.0003ZM55.381 20.2769L56.6775 26.5638H53.0432L55.381 20.2769Z" fill="white"/>
<path fill-rule="evenodd" clip-rule="evenodd" d="M118 34.7317C115.564 36.8321 112.404 38.1 108.951 38.1C101.246 38.1 95 31.7872 95 24C95 16.2128 101.246 9.89999 108.951 9.89999C112.404 9.89999 115.564 11.1679 118 13.2683C120.436 11.1679 123.596 9.89999 127.049 9.89999C134.754 9.89999 141 16.2128 141 24C141 31.7872 134.754 38.1 127.049 38.1C123.596 38.1 120.436 36.8321 118 34.7317Z" fill="#ED0006"/>
<path fill-rule="evenodd" clip-rule="evenodd" d="M118 34.7317C121 32.1455 122.902 28.2973 122.902 24C122.902 19.7027 121 15.8545 118 13.2683C120.436 11.1679 123.596 9.89999 127.049 9.89999C134.754 9.89999 141 16.2128 141 24C141 31.7872 134.754 38.1 127.049 38.1C123.596 38.1 120.436 36.8321 118 34.7317Z" fill="#F9A000"/>
<path fill-rule="evenodd" clip-rule="evenodd" d="M118 34.7314C121 32.1452 122.902 28.297 122.902 23.9999C122.902 19.7027 121 15.8545 118 13.2683C115.001 15.8545 113.099 19.7027 113.099 23.9999C113.099 28.297 115.001 32.1452 118 34.7314Z" fill="#FF5E00"/>
<path fill-rule="evenodd" clip-rule="evenodd" d="M177.546 16.7L171 31.2813H178.836L179.808 28.9564H182.028L183 31.2813H191.625V29.5069L192.394 31.2813H196.855L197.624 29.4694V31.2813H215.563L217.744 29.0168L219.786 31.2813L229 31.3L222.434 24.0313L229 16.7H219.929L217.806 18.9226L215.828 16.7H196.313L194.637 20.4636L192.922 16.7H185.102V18.414L184.232 16.7H177.546ZM204.333 18.7706H214.634L217.785 22.1964L221.037 18.7706H224.188L219.401 24.0293L224.188 29.2274H220.894L217.744 25.7619L214.475 29.2274H204.333V18.7706ZM206.877 22.8469V20.9369V20.9351H213.305L216.109 23.9897L213.181 27.061H206.877V24.9758H212.497V22.8469H206.877ZM179.062 18.7706H182.882L187.224 28.6582V18.7706H191.408L194.761 25.86L197.852 18.7706H202.016V29.2336H199.482L199.462 21.0348L195.768 29.2336H193.502L189.788 21.0348V29.2336H184.576L183.588 26.8879H178.25L177.264 29.2315H174.472L179.062 18.7706ZM179.162 24.7195L180.92 20.5409L182.677 24.7195H179.162Z" fill="white"/>
<path fill-rule="evenodd" clip-rule="evenodd" d="M307.801 19.1261C310.011 19.1261 311.226 20.1126 311.226 21.9758C311.337 23.4006 310.343 24.6063 309.017 24.8255L312 28.8808H309.68L307.138 24.9351H306.917V28.8808H305.039V19.1261H307.801ZM306.917 23.6198H307.47C308.685 23.6198 309.238 23.0718 309.238 22.0854C309.238 21.2086 308.685 20.6606 307.47 20.6606H306.917V23.6198ZM298.519 28.8808H303.823V27.2367H300.398V24.6063H303.713V22.9622H300.398V20.7702H303.823V19.1261H298.519V28.8808ZM292.994 25.7023L290.453 19.1261H288.464L292.552 29.1H293.547L297.635 19.1261H295.646L292.994 25.7023ZM270.564 24.0583C270.564 26.7983 272.773 29.1 275.536 29.1C276.42 29.1 277.193 28.8808 277.967 28.552V26.3599C277.414 27.0175 276.641 27.456 275.757 27.456C273.989 27.456 272.552 26.1407 272.552 24.3871V24.1679C272.442 22.4142 273.878 20.8798 275.646 20.7702C276.53 20.7702 277.414 21.2086 277.967 21.8662V19.6741C277.304 19.2357 276.42 19.1261 275.646 19.1261C272.773 18.9069 270.564 21.2086 270.564 24.0583ZM267.138 22.8526C266.033 22.4142 265.702 22.195 265.702 21.647C265.812 20.9894 266.365 20.4414 267.028 20.551C267.58 20.551 268.133 20.8798 268.575 21.3182L269.569 20.0029C268.796 19.3453 267.801 18.9069 266.807 18.9069C265.26 18.7973 263.934 20.0029 263.823 21.5374V21.647C263.823 22.9622 264.376 23.7294 266.144 24.2775C266.586 24.3871 267.028 24.6063 267.47 24.8255C267.801 25.0447 268.022 25.3735 268.022 25.8119C268.022 26.5791 267.359 27.2367 266.696 27.2367H266.586C265.702 27.2367 264.928 26.6887 264.597 25.9215L263.381 27.1271C264.044 28.3328 265.37 28.9904 266.696 28.9904C268.464 29.1 269.901 27.7848 270.011 26.0311V25.7023C269.901 24.3871 269.348 23.7294 267.138 22.8526ZM260.729 28.8808H262.608V19.1261H260.729V28.8808ZM252 19.1261H254.762H255.315C257.967 19.2357 260.066 21.4278 259.956 24.0583C259.956 25.4831 259.293 26.7983 258.188 27.7848C257.193 28.552 255.978 28.9904 254.762 28.8808H252V19.1261ZM254.431 27.2368C255.315 27.3464 256.309 27.0176 256.972 26.4695C257.635 25.8119 257.967 24.9351 257.967 23.9487C257.967 23.0719 257.635 22.195 256.972 21.5374C256.309 20.9894 255.315 20.6606 254.431 20.7702H253.878V27.2368H254.431Z" fill="white"/>
<path fill-rule="evenodd" clip-rule="evenodd" d="M283.704 18.9C280.942 18.9 278.621 21.0921 278.621 23.9417C278.621 26.6818 280.831 28.9835 283.704 29.0931C286.577 29.2027 288.787 26.901 288.897 24.0513C288.787 21.2017 286.577 18.9 283.704 18.9Z" fill="url(#paint0_linear_602_255)"/>
<path fill-rule="evenodd" clip-rule="evenodd" d="M283.704 18.9C280.942 18.9 278.621 21.0921 278.621 23.9417C278.621 26.6818 280.831 28.9835 283.704 29.0931C286.577 29.2027 288.787 26.901 288.897 24.0513C288.787 21.2017 286.577 18.9 283.704 18.9Z" fill="url(#paint1_radial_602_255)"/>
<path d="M373.789 17.0005H369.432C369.135 17.0005 368.881 17.2182 368.835 17.514L367.073 28.7413C367.038 28.9628 367.209 29.1626 367.431 29.1626H369.667C369.874 29.1626 370.052 29.0102 370.084 28.8028L370.584 25.6203C370.63 25.3239 370.884 25.1062 371.182 25.1062H372.56C375.43 25.1062 377.085 23.7106 377.518 20.9449C377.714 19.7349 377.526 18.7842 376.962 18.1184C376.344 17.3872 375.246 17.0005 373.789 17.0005ZM374.291 21.1011C374.053 22.6722 372.859 22.6722 371.704 22.6722H371.047L371.509 19.7381C371.536 19.5607 371.688 19.4301 371.867 19.4301H372.168C372.954 19.4301 373.697 19.4301 374.08 19.8808C374.309 20.1497 374.378 20.5492 374.291 21.1011Z" fill="white"/>
<path d="M386.808 21.0506H384.723C384.544 21.0506 384.392 21.1812 384.365 21.3585L384.273 21.945L384.127 21.7324C383.675 21.0737 382.669 20.8534 381.664 20.8534C379.359 20.8534 377.391 22.6082 377.007 25.0698C376.809 26.2978 377.091 27.4719 377.784 28.2907C378.421 29.0436 379.329 29.3573 380.411 29.3573C382.268 29.3573 383.298 28.1569 383.298 28.1569L383.205 28.7395C383.17 28.9623 383.341 29.162 383.564 29.162H385.442C385.74 29.162 385.993 28.9444 386.04 28.648L387.168 21.4719C387.202 21.251 387.031 21.0506 386.808 21.0506ZM383.901 25.1313C383.701 26.3291 382.753 27.1332 381.547 27.1332C380.943 27.1332 380.457 26.938 380.147 26.5679C379.838 26.2004 379.722 25.6774 379.819 25.0948C380.008 23.9072 380.969 23.0769 382.157 23.0769C382.749 23.0769 383.231 23.2747 383.548 23.6479C383.867 24.025 383.993 24.5513 383.901 25.1313Z" fill="white"/>
<path d="M389.267 17.3086L387.479 28.7414C387.444 28.9629 387.615 29.1627 387.837 29.1627H389.634C389.933 29.1627 390.187 28.945 390.232 28.6486L391.995 17.4219C392.03 17.2004 391.86 17 391.637 17H389.625C389.447 17.0006 389.294 17.1312 389.267 17.3086Z" fill="white"/>
<path d="M342.72 17.0005H338.364C338.066 17.0005 337.813 17.2182 337.766 17.514L336.005 28.7413C335.97 28.9628 336.14 29.1626 336.364 29.1626H338.443C338.741 29.1626 338.995 28.9449 339.041 28.6485L339.516 25.6203C339.562 25.3239 339.816 25.1062 340.114 25.1062H341.493C344.362 25.1062 346.018 23.7106 346.45 20.9449C346.645 19.7349 346.459 18.7842 345.895 18.1184C345.276 17.3872 344.178 17.0005 342.72 17.0005ZM343.222 21.1011C342.984 22.6722 341.79 22.6722 340.635 22.6722H339.978L340.439 19.7381C340.467 19.5607 340.62 19.4301 340.798 19.4301H341.099C341.886 19.4301 342.628 19.4301 343.011 19.8808C343.24 20.1497 343.31 20.5492 343.222 21.1011Z" fill="white"/>
<path d="M355.74 21.0506H353.655C353.477 21.0506 353.323 21.1812 353.296 21.3585L353.204 21.945L353.058 21.7324C352.606 21.0737 351.599 20.8534 350.594 20.8534C348.289 20.8534 346.321 22.6082 345.937 25.0698C345.738 26.2978 346.021 27.4719 346.714 28.2907C347.35 29.0436 348.259 29.3573 349.341 29.3573C351.199 29.3573 352.229 28.1569 352.229 28.1569L352.136 28.7395C352.101 28.9623 352.271 29.162 352.493 29.162H354.372C354.671 29.162 354.923 28.9444 354.97 28.648L356.098 21.4719C356.133 21.251 355.963 21.0506 355.74 21.0506ZM352.833 25.1313C352.632 26.3291 351.686 27.1332 350.48 27.1332C349.874 27.1332 349.39 26.938 349.079 26.5679C348.771 26.2004 348.654 25.6774 348.752 25.0948C348.94 23.9072 349.901 23.0769 351.089 23.0769C351.681 23.0769 352.163 23.2747 352.48 23.6479C352.798 24.025 352.924 24.5513 352.833 25.1313Z" fill="white"/>
<path d="M366.849 21.0505H364.753C364.553 21.0505 364.365 21.1504 364.251 21.3175L361.361 25.5979L360.135 21.4846C360.058 21.2272 359.822 21.0505 359.554 21.0505H357.495C357.244 21.0505 357.071 21.2964 357.15 21.5333L359.459 28.3438L357.288 31.4238C357.118 31.6665 357.29 32 357.584 32H359.678C359.877 32 360.063 31.9027 360.175 31.7388L367.147 21.6235C367.314 21.3815 367.142 21.0505 366.849 21.0505Z" fill="white"/>
<path fill-rule="evenodd" clip-rule="evenodd" d="M425.18 26.9478C424.804 27.1562 424.404 27.2602 423.98 27.2602H423.653C423.568 27.2602 423.447 27.2531 423.096 27.1911L424.282 22.1488C424.5 21.9529 424.735 21.8257 425.007 21.7642C425.28 21.703 425.456 21.6865 425.625 21.6865C426.146 21.6865 426.549 21.8377 426.743 22.1687C426.937 22.4994 427.034 22.959 427.034 23.5471C427.034 24.0251 426.955 24.4847 426.798 24.9258C426.64 25.3669 426.425 25.7621 426.152 26.1114C425.88 26.4606 425.555 26.7395 425.18 26.9478ZM427.852 19.7056C427.427 19.4973 426.925 19.393 426.343 19.393C426.064 19.393 425.804 19.4237 425.562 19.4849C425.319 19.5464 425.091 19.6257 424.848 19.736L425.962 14.9999L423.144 15.441L420 28.8042C420.351 28.976 420.724 29.1107 421.118 29.2085C421.511 29.3066 421.884 29.38 422.235 29.4292C422.587 29.478 422.899 29.5055 423.172 29.5119C423.444 29.5179 423.635 29.5211 423.744 29.5211C424.592 29.5211 425.38 29.3585 426.107 29.0339C426.834 28.7094 427.464 28.2683 427.997 27.7106C428.53 27.153 428.951 26.4973 429.26 25.7437C429.569 24.9901 429.724 24.1905 429.724 23.3449C429.724 22.7936 429.657 22.2789 429.524 21.801C429.39 21.3229 429.184 20.9065 428.906 20.551C428.627 20.1957 428.276 19.914 427.852 19.7056ZM435.303 18.2134L435.717 16.4524H433.018L432.604 18.2134H435.303ZM438.389 27.0365C438.587 27.1372 438.86 27.1872 439.208 27.1872C439.506 27.1872 439.795 27.159 440.074 27.1025C440.257 27.0656 440.447 27.022 440.635 26.9569L440.073 29.3345C440.029 29.3454 439.961 29.362 439.916 29.3724C439.481 29.4728 438.966 29.5231 438.37 29.5231C437.513 29.5231 436.849 29.3942 436.377 29.137C435.905 28.8797 435.569 28.528 435.371 28.082C435.172 27.6364 435.085 27.1246 435.11 26.5467C435.135 25.9693 435.222 25.3599 435.371 24.7194L437.196 16.9204L440.084 16.4682L439.376 19.3882H442.468L441.909 21.6865H438.836L438.016 25.1527C437.941 25.4418 437.895 25.7117 437.876 25.9627C437.858 26.214 437.888 26.4308 437.969 26.6127C438.05 26.7948 438.19 26.9362 438.389 27.0365ZM472 19.3912H469.301L467.732 26.0702H467.734L467.519 26.9889C467.368 27.0316 467.218 27.0701 467.069 27.1002C466.79 27.1567 466.501 27.1851 466.203 27.1851C465.855 27.1851 465.582 27.1349 465.384 27.0343C465.185 26.9339 465.045 26.7927 464.964 26.6104C464.884 26.4285 464.853 26.2119 464.871 25.9605C464.89 25.7094 464.937 25.4395 465.011 25.1505L465.831 21.6842L466.371 19.386L466.371 19.3853H463.614L462.366 24.7173C462.217 25.3577 462.13 25.967 462.105 26.5446C462.08 27.1223 462.167 27.6342 462.366 28.0798C462.564 28.5257 462.9 28.8776 463.372 29.1348C463.844 29.392 464.508 29.521 465.365 29.521C465.961 29.521 466.476 29.4707 466.911 29.3702C466.929 29.3662 466.945 29.3618 466.963 29.3575L466.961 29.3625C466.841 29.9126 466.596 30.3587 466.203 30.707C465.81 31.0555 465.227 31.2297 464.454 31.2297C464.123 31.2297 463.824 31.2099 463.552 31.1718L463.021 33.4319C463.38 33.479 463.778 33.5033 464.218 33.5033C465.04 33.5033 465.759 33.4083 466.376 33.2189C466.992 33.0294 467.521 32.7423 467.962 32.3571C468.403 31.9721 468.772 31.4891 469.068 30.9088C469.364 30.3281 469.603 29.6408 469.784 28.846L471.651 20.9069L471.645 20.9039L472 19.3912ZM429.942 29.523L432.325 19.3855H435.023L432.641 29.523H429.942ZM458.763 21.6863C457.504 21.6863 457.264 21.6863 456.749 21.9567C456.383 22.1486 456.08 22.4371 455.813 22.7737C455.547 23.1104 455.338 23.4989 455.187 23.9394C455.036 24.3802 454.96 24.8391 454.96 25.3165C454.96 25.9039 455.057 26.3693 455.251 26.7118C455.444 27.0546 455.801 27.2258 456.322 27.2258C456.6 27.2258 456.851 27.1708 457.075 27.0606C457.299 26.9505 457.538 26.7668 457.792 26.5098C457.816 26.2041 457.856 25.8828 457.91 25.546C457.96 25.2385 458.022 24.9515 458.079 24.6892L458.079 24.6892L458.079 24.689L458.079 24.6888L458.079 24.6886L458.094 24.6157L458.763 21.6863ZM460.679 25.0962C460.509 25.794 460.461 26.4946 460.534 27.1984C460.606 27.9025 460.873 28.981 461.132 29.521H458.521C458.283 29.1143 458.23 28.8687 458.194 28.6989C458.182 28.6408 458.171 28.5916 458.156 28.5478C457.817 28.8295 457.441 29.062 457.03 29.2455C456.619 29.4291 456.159 29.521 455.65 29.521C455.045 29.521 454.528 29.4137 454.098 29.1997C453.668 28.9856 453.317 28.6979 453.045 28.3368C452.773 27.9759 452.576 27.5536 452.455 27.07C452.334 26.5865 452.274 26.0693 452.274 25.5185C452.274 24.674 452.422 23.8784 452.718 23.1318C453.015 22.3853 453.426 21.7334 453.953 21.1764C454.479 20.6195 455.75 19.3914 457.835 19.3914L462.022 19.3913L460.679 25.0962ZM444.889 27.1915C445.096 27.2409 445.352 27.2655 445.657 27.2655C446.132 27.2655 446.564 27.1762 446.954 26.9975C447.344 26.819 447.676 26.5695 447.95 26.2489C448.225 25.9286 448.438 25.5437 448.59 25.0937C448.742 24.644 448.819 24.1482 448.819 23.6059C448.819 23.0762 448.703 22.6262 448.471 22.2566C448.24 21.8868 447.834 21.6904 447.261 21.688C446.861 21.6865 446.196 21.6865 446.196 21.6865L444.889 27.1915ZM451.523 23.4024C451.523 24.3021 451.377 25.1246 451.085 25.8699C450.792 26.6156 450.387 27.2594 449.869 27.8014C449.351 28.3438 448.73 28.7658 448.005 29.0676C447.28 29.3693 446.491 29.5204 445.638 29.5204C445.224 29.5204 444.81 29.4834 444.396 29.4094L443.573 32.7549H440.868L444.008 19.3916C444.334 19.3914 445.662 19.3915 446.659 19.3916H446.66H446.66H446.664H446.667H446.673L447.612 19.3916C448.294 19.3916 448.882 19.4964 449.376 19.7058C449.869 19.9155 450.274 20.2019 450.591 20.5653C450.908 20.9289 451.142 21.354 451.295 21.8405C451.447 22.3276 451.523 22.848 451.523 23.4024Z" fill="white"/>
<defs>
<linearGradient id="paint0_linear_602_255" x1="280.607" y1="19.8635" x2="287.279" y2="27.6335" gradientUnits="userSpaceOnUse">
<stop stop-color="#E15315"/>
<stop offset="1" stop-color="#FFB320"/>
</linearGradient>
<radialGradient id="paint1_radial_602_255" cx="0" cy="0" r="1" gradientUnits="userSpaceOnUse" gradientTransform="translate(284.5 25.5) rotate(-126.027) scale(6.80074 7.04119)">
<stop stop-color="#FFCD83" stop-opacity="0"/>
<stop offset="0.725604" stop-color="#E45816" stop-opacity="0.7"/>
<stop offset="1" stop-color="#912301"/>
</radialGradient>
</defs>
</svg>
